<svg width="520" height="120" viewBox="0 0 520 120" fill="none" xmlns="http://www.w3.org/2000/svg" role="img" aria-labelledby="title desc">
<title id="title">RRA logo</title>
<desc id="desc">RRA — Workplace Ordering, Simplified</desc>

<g transform="translate(8 8)">
  <path d="M14 45C14 25.7 29.7 10 49 10C68.3 10 84 25.7 84 45" stroke="#0B2B63" stroke-width="8" stroke-linecap="round"/>
  <path d="M23 48H75" stroke="#0B2B63" stroke-width="7" stroke-linecap="round"/>
  <path d="M31 44C31 31.1 39.1 22.5 49 22.5C58.9 22.5 67 31.1 67 44H31Z" fill="#F58220"/>
  <circle cx="49" cy="21" r="3.4" fill="#F58220"/>
  <path d="M32 55C38.2 63.2 59.8 63.2 66 55" fill="#0B2B63"/>
  <path d="M49 0V12" stroke="#F58220" stroke-width="6" stroke-linecap="round"/>
  <path d="M32 5L26 15" stroke="#F58220" stroke-width="6" stroke-linecap="round"/>
  <path d="M66 5L72 15" stroke="#F58220" stroke-width="6" stroke-linecap="round"/>
</g>

<text x="128" y="66" fill="#0B2B63" font-family="Inter, Montserrat, Arial, sans-serif" font-size="60" font-weight="800" letter-spacing="-2.4">RRA</text>
<text x="132" y="94" fill="#6B7280" font-family="Inter, Montserrat, Arial, sans-serif" font-size="12" font-weight="600" letter-spacing="4">WORKPLACE ORDERING, SIMPLIFIED</text>
</svg>
